<?xml version="1.0" standalone="no"?>
<!DOCTYPE svg PUBLIC "-//W3C//DTD SVG 20010904//EN"
 "http://www.w3.org/TR/2001/REC-SVG-20010904/DTD/svg10.dtd">
<svg version="1.0" xmlns="http://www.w3.org/2000/svg"
 width="1280.000000pt" height="938.000000pt" viewBox="0 0 1280.000000 938.000000"
 preserveAspectRatio="xMidYMid meet">
<metadata>
Created by potrace 1.15, written by Peter Selinger 2001-2017
</metadata>
<g transform="translate(0.000000,938.000000) scale(0.100000,-0.100000)"
fill="#000000" stroke="none">
<path d="M6621 8118 c-13 -4 -27 -6 -31 -3 -5 3 -11 1 -15 -4 -3 -6 -12 -8
-20 -4 -8 3 -15 0 -15 -7 0 -6 -4 -9 -8 -6 -12 7 -82 -15 -82 -27 0 -5 -7 -7
-15 -3 -8 3 -15 1 -15 -4 0 -6 -7 -10 -15 -10 -8 0 -15 -4 -15 -9 0 -5 -11
-12 -24 -15 -13 -3 -45 -26 -70 -51 -26 -25 -50 -45 -55 -45 -4 0 -14 -11 -21
-25 -7 -14 -17 -25 -22 -25 -4 0 -8 -5 -8 -10 0 -6 -9 -20 -20 -32 -10 -12
-17 -25 -14 -30 3 -4 0 -8 -5 -8 -6 0 -11 -7 -11 -15 0 -8 -5 -15 -11 -15 -6
0 -9 -7 -5 -15 3 -8 2 -15 -3 -15 -11 0 -44 -115 -46 -157 -1 -18 -3 -35 -6
-38 -7 -6 4 -180 11 -180 1 0 3 -9 4 -20 3 -27 27 -97 36 -110 5 -5 -20 -67
-54 -136 -43 -87 -76 -172 -106 -278 -42 -147 -44 -151 -56 -122 -21 51 -182
203 -294 278 -107 72 -166 127 -196 184 -9 18 -32 78 -51 133 -42 123 -84 204
-131 252 -36 38 -102 73 -136 74 -19 0 -106 82 -106 100 0 5 -6 10 -13 10 -7
0 -19 9 -27 20 -8 11 -18 20 -23 20 -4 0 -18 9 -30 20 -34 33 -64 20 -146 -61
-48 -48 -71 -77 -71 -89 0 -6 -4 -10 -10 -10 -5 0 -10 -7 -10 -15 0 -8 -5 -15
-11 -15 -5 0 -7 -4 -4 -10 3 -5 2 -10 -3 -10 -8 0 -13 -11 -22 -48 -1 -4 -5
-11 -10 -17 -9 -12 -32 -81 -37 -115 -7 -42 -10 -214 -4 -225 3 -5 6 -14 6
-20 1 -32 29 -115 38 -115 6 0 7 -3 4 -7 -4 -3 -2 -12 4 -20 6 -7 8 -13 5 -13
-8 0 55 -94 66 -98 4 -2 8 -9 8 -16 0 -6 9 -18 20 -26 11 -8 20 -20 20 -27 0
-7 3 -13 8 -13 4 0 21 -12 37 -26 17 -14 37 -29 45 -34 11 -6 17 -36 21 -112
4 -57 10 -127 14 -156 4 -30 4 -52 -1 -51 -14 3 -74 -24 -74 -33 0 -4 -7 -8
-15 -8 -8 0 -15 -4 -15 -10 0 -5 -6 -10 -13 -10 -7 0 -19 -9 -27 -20 -8 -11
-18 -20 -22 -20 -11 0 -108 -98 -108 -108 0 -5 -10 -8 -22 -8 -27 1 -93 69
-125 128 -31 56 -29 106 9 196 29 70 32 87 33 182 0 97 -2 110 -31 170 -42 88
-102 152 -176 189 -33 17 -64 29 -68 26 -4 -3 -26 12 -48 33 -64 59 -108 89
-124 84 -5 -1 -8 2 -8 8 0 6 -3 9 -7 8 -5 -1 -18 3 -30 10 -13 7 -23 10 -23 8
0 -3 -12 -1 -27 5 -16 6 -50 13 -76 15 -47 4 -48 4 -64 -33 -8 -21 -16 -42
-18 -48 -20 -94 -24 -166 -12 -220 5 -22 10 -49 13 -60 2 -11 18 -49 35 -85
33 -67 148 -192 189 -205 24 -7 25 -15 7 -39 -13 -18 -16 -18 -71 3 -70 26
-110 33 -201 33 -78 1 -127 -6 -166 -21 -15 -5 -30 -7 -33 -4 -3 4 -6 2 -6 -4
0 -5 -18 -15 -40 -22 -22 -6 -40 -16 -40 -20 0 -5 -11 -12 -25 -15 -14 -4 -25
-11 -25 -16 0 -6 -7 -10 -15 -10 -20 0 -19 -39 2 -92 9 -24 19 -45 22 -48 3
-3 15 -23 26 -44 18 -37 91 -117 143 -158 36 -29 102 -69 102 -62 0 4 7 1 15
-6 8 -7 15 -9 15 -4 0 5 4 3 8 -3 4 -7 19 -15 32 -17 14 -2 26 -5 28 -7 3 -3
21 -6 38 -8 8 0 13 -5 10 -10 -3 -5 1 -15 10 -22 21 -17 56 -87 46 -92 -9 -5
-44 -3 -57 4 -6 3 -37 4 -70 3 -52 -2 -85 -6 -155 -18 -8 -2 -28 -8 -43 -15
-15 -6 -39 -14 -53 -17 -13 -3 -26 -10 -29 -14 -6 -10 -55 0 -55 11 0 5 -4 9
-9 9 -5 0 -22 5 -38 12 -15 6 -31 12 -35 13 -5 2 -10 4 -13 5 -3 1 -9 4 -15 5
-5 1 -11 3 -12 4 -2 2 -15 4 -30 6 -23 3 -32 -4 -57 -44 -17 -26 -31 -53 -31
-59 0 -7 -4 -12 -9 -12 -9 0 -52 -136 -59 -190 -9 -72 -3 -202 11 -216 3 -3 3
-12 0 -20 -3 -8 0 -14 7 -14 6 0 9 -4 6 -9 -4 -5 -1 -22 6 -38 6 -15 12 -30
13 -33 19 -48 31 -70 37 -70 4 0 8 -7 8 -15 0 -8 5 -15 10 -15 6 0 10 -4 10
-10 0 -19 131 -160 149 -160 6 0 11 -4 11 -10 0 -5 7 -10 15 -10 8 0 15 -4 15
-9 0 -5 10 -11 23 -15 37 -9 84 -58 91 -96 1 -3 5 -11 9 -17 11 -17 -7 -17
-168 2 -257 31 -411 58 -541 96 l-72 21 9 32 c29 99 -68 249 -209 324 -34 18
-62 30 -62 25 0 -4 -4 -3 -8 2 -12 17 -134 95 -149 95 -7 0 -13 5 -13 12 0 6
-3 9 -6 5 -4 -3 -23 1 -43 9 -31 13 -82 23 -146 28 -20 1 -97 -8 -147 -19 -15
-3 -48 -14 -73 -25 l-46 -20 5 -42 c10 -80 50 -198 67 -198 4 0 11 -10 14 -21
9 -27 119 -136 146 -144 10 -4 19 -10 19 -14 0 -8 122 -59 161 -66 13 -3 38
-6 55 -7 18 -1 31 -5 29 -9 -5 -8 55 -34 110 -49 85 -21 198 -7 235 30 18 18
23 18 59 6 74 -27 347 -85 571 -123 124 -21 216 -39 205 -41 -11 -3 -22 -8
-25 -13 -3 -5 -24 -4 -45 3 -22 6 -54 12 -72 12 -18 1 -35 4 -37 7 -9 9 -157
0 -186 -11 -3 -1 -8 -2 -12 -1 -23 3 -189 -66 -196 -81 -2 -5 -10 -8 -18 -8
-8 0 -14 -4 -14 -10 0 -5 -6 -10 -13 -10 -7 0 -19 -9 -27 -20 -8 -11 -18 -20
-23 -20 -11 0 -37 -26 -37 -37 0 -5 -9 -15 -20 -23 -11 -8 -20 -20 -20 -27 0
-7 -3 -13 -7 -13 -8 0 -67 -88 -69 -102 -1 -5 -3 -10 -4 -13 -1 -3 -3 -8 -5
-12 -1 -5 -7 -21 -14 -38 -7 -16 -14 -40 -14 -52 -1 -13 -5 -23 -9 -23 -4 0
-6 -13 -4 -30 2 -16 1 -32 -2 -35 -8 -8 -10 -82 -3 -94 4 -6 25 -17 46 -25 26
-9 40 -19 39 -30 -1 -9 3 -16 8 -16 6 0 8 -7 5 -15 -4 -8 -2 -17 4 -21 6 -3 8
-12 5 -20 -3 -8 -1 -14 4 -14 6 0 10 -9 10 -20 0 -11 4 -20 10 -20 5 0 7 -7 4
-15 -4 -8 -1 -15 5 -15 6 0 11 -5 11 -11 0 -6 13 -30 30 -54 16 -24 30 -47 30
-52 0 -5 9 -15 20 -23 11 -8 20 -20 20 -27 0 -7 5 -13 10 -13 6 0 26 -16 44
-35 19 -19 39 -35 45 -35 6 0 11 -4 11 -10 0 -5 6 -10 14 -10 8 0 17 -7 20
-16 3 -8 10 -13 15 -10 13 8 25 -12 50 -84 13 -36 31 -80 42 -97 21 -38 32
-31 -99 -58 -104 -21 -107 -21 -110 18 -7 116 -61 238 -139 315 -61 61 -181
138 -232 148 -16 4 -39 15 -50 25 -11 11 -25 19 -31 19 -5 0 -10 5 -10 10 0 6
-7 10 -15 10 -8 0 -15 4 -15 9 0 5 -13 12 -30 16 -16 4 -30 10 -30 14 0 8
-100 42 -135 47 -11 1 -20 3 -20 4 0 3 -97 12 -125 12 -29 0 -124 -9 -127 -12
-2 -2 -7 -3 -12 -4 -5 0 -12 -4 -16 -8 -4 -4 -13 -4 -21 -1 -8 3 -14 0 -14 -6
0 -6 -7 -8 -15 -5 -8 4 -15 1 -15 -6 0 -7 -7 -10 -15 -6 -9 3 -18 0 -20 -7 -8
-21 -13 -76 -6 -82 3 -3 6 -20 7 -38 1 -18 3 -32 4 -32 1 0 3 -9 4 -20 6 -40
29 -105 39 -105 5 0 7 -7 3 -15 -3 -8 -1 -15 4 -15 6 0 10 -7 10 -15 0 -8 4
-15 9 -15 5 0 12 -11 15 -24 3 -13 26 -45 51 -70 25 -26 45 -49 45 -52 0 -9
28 -34 38 -34 6 0 12 -4 14 -8 6 -14 95 -71 102 -65 3 4 6 1 6 -5 0 -7 4 -12
9 -12 5 0 22 -5 38 -12 15 -6 31 -11 35 -10 5 1 8 -3 8 -9 0 -6 7 -9 15 -6 8
4 17 2 20 -4 4 -5 10 -7 14 -4 5 2 23 -9 41 -25 19 -17 40 -30 48 -30 38 0 -6
-12 -144 -39 -198 -38 -237 -44 -229 -32 3 6 -14 16 -37 23 -24 7 -52 20 -62
30 -11 10 -28 20 -38 24 -10 3 -18 10 -18 15 0 5 -7 9 -15 9 -8 0 -15 5 -15
12 0 6 -3 8 -7 5 -3 -4 -12 -2 -18 3 -19 16 -126 50 -136 44 -5 -3 -9 -2 -9 3
0 14 -135 21 -205 10 -45 -7 -79 -14 -82 -17 -2 -2 -7 -4 -13 -5 -5 -1 -12 -4
-15 -5 -3 -1 -9 -4 -15 -5 -5 -1 -13 -4 -17 -5 -5 -1 -11 -2 -15 -1 -5 0 -8
-3 -8 -8 0 -5 -10 -12 -23 -15 -28 -7 -78 -47 -142 -112 -88 -89 -123 -147
-103 -172 23 -30 77 -82 84 -82 4 0 14 -8 23 -18 15 -17 57 -39 75 -40 5 0 12
-5 15 -10 6 -9 92 -40 133 -47 12 -2 36 -6 52 -9 16 -3 32 -10 36 -16 15 -25
117 -53 210 -57 141 -7 277 35 383 119 21 16 41 27 44 24 4 -3 1 -6 -5 -6 -7
0 -12 -7 -12 -15 0 -8 -5 -15 -11 -15 -6 0 -9 -7 -5 -15 3 -8 2 -15 -2 -15
-11 0 -44 -105 -46 -149 -1 -20 -4 -41 -7 -46 -7 -13 -3 -120 6 -170 4 -22 8
-48 8 -57 1 -10 5 -18 10 -18 5 0 7 -7 3 -15 -3 -8 -1 -15 4 -15 5 0 10 -10
12 -22 3 -21 8 -23 76 -23 41 0 76 3 79 8 2 4 8 5 13 2 5 -3 21 0 36 5 23 9
31 7 53 -13 52 -49 112 -63 192 -46 180 38 348 212 405 420 14 51 17 92 15
199 -6 214 -6 260 3 336 l9 71 130 26 131 25 30 -23 c17 -12 51 -33 75 -45 40
-20 43 -24 37 -52 -3 -17 -6 -34 -6 -38 0 -4 -12 -19 -26 -34 -15 -14 -24 -26
-20 -26 4 0 -4 -10 -17 -22 -13 -13 -27 -32 -32 -43 -4 -11 -9 -22 -10 -25 -2
-3 -6 -15 -10 -27 -4 -13 -11 -23 -16 -23 -5 0 -9 -4 -9 -9 0 -5 -5 -22 -12
-38 -6 -15 -12 -32 -13 -38 -1 -5 -3 -12 -4 -15 -2 -5 -9 -44 -15 -80 -1 -9
-4 -20 -7 -25 -5 -9 -4 -170 1 -170 2 0 12 -65 13 -87 1 -10 5 -18 10 -18 4 0
7 -6 6 -12 -4 -22 42 -128 55 -128 4 0 6 -7 2 -15 -3 -8 -1 -15 4 -15 6 0 10
-4 10 -10 0 -5 9 -19 21 -31 l21 -21 84 23 c46 13 84 28 84 34 0 5 6 -1 13
-14 21 -43 72 -64 164 -69 73 -4 83 -7 83 -23 0 -11 5 -19 10 -19 6 0 10 -7
10 -15 0 -8 5 -15 10 -15 6 0 10 -7 10 -15 0 -9 7 -18 15 -21 8 -4 15 -12 15
-20 0 -8 5 -14 10 -14 6 0 10 -7 10 -15 0 -9 7 -18 15 -21 8 -4 15 -12 15 -20
0 -8 7 -14 15 -14 8 0 15 -7 15 -15 0 -8 6 -15 14 -15 8 0 16 -7 20 -15 3 -8
12 -15 21 -15 8 0 15 -7 15 -16 0 -10 6 -14 15 -10 9 3 15 0 15 -9 0 -8 9 -15
20 -15 12 0 20 -7 20 -16 0 -10 6 -14 15 -10 8 3 15 1 15 -4 0 -11 90 -55 104
-52 4 2 14 -2 21 -8 10 -8 19 -8 33 -1 15 8 29 7 56 -4 45 -19 117 -19 160 -1
19 8 52 31 75 51 51 46 123 153 114 169 -4 6 0 5 9 -2 9 -8 15 -19 12 -27 -3
-7 0 -16 5 -20 6 -3 9 -11 5 -16 -3 -5 0 -16 6 -24 6 -8 9 -19 6 -24 -4 -5 -1
-13 6 -18 7 -4 13 -12 14 -18 3 -23 17 -55 25 -55 5 0 9 -9 9 -20 0 -11 4 -20
8 -20 5 0 14 -16 22 -35 8 -19 17 -35 22 -35 4 0 8 -7 8 -15 0 -8 5 -15 10
-15 6 0 14 -8 17 -17 9 -23 58 -73 72 -73 6 0 11 -7 11 -15 0 -8 6 -15 14 -15
8 0 16 -7 20 -15 3 -8 12 -15 21 -15 8 0 15 -4 15 -10 0 -5 7 -10 15 -10 8 0
15 -6 15 -12 0 -14 118 -73 137 -70 6 2 14 -2 17 -7 9 -14 46 -1 46 17 0 14 2
14 13 -1 19 -27 113 -42 165 -28 91 25 173 136 213 288 16 59 21 109 21 203 1
117 -13 210 -66 452 -3 12 25 2 108 -42 105 -55 208 -96 302 -120 30 -7 43
-16 48 -33 3 -12 4 -22 3 -22 -1 0 8 -14 20 -31 12 -17 20 -34 16 -38 -3 -3
-1 -6 5 -6 7 0 12 -7 12 -15 0 -8 5 -15 10 -15 6 0 10 -6 10 -13 0 -7 9 -19
20 -27 11 -8 20 -20 20 -27 0 -7 5 -13 11 -13 6 0 27 -17 45 -37 19 -20 34
-33 34 -28 0 5 6 2 13 -7 6 -8 28 -24 47 -34 19 -11 37 -22 40 -25 9 -11 201
-70 210 -64 5 3 12 -1 17 -8 21 -35 156 -68 273 -68 195 0 306 65 397 233 15
27 30 48 35 48 5 0 6 5 2 12 -8 13 -7 12 65 -37 48 -32 60 -35 123 -35 38 0
67 -4 64 -9 -8 -13 98 -50 174 -61 145 -21 547 60 725 145 94 45 147 100 206
215 54 107 72 130 118 158 30 18 71 19 71 2 0 -8 38 -23 53 -21 4 1 7 -4 7 -9
0 -6 9 -10 20 -10 11 0 20 -5 20 -11 0 -6 7 -9 15 -5 8 3 15 2 15 -3 0 -9 38
-24 57 -22 6 1 14 -3 18 -8 3 -6 12 -8 20 -4 8 3 15 1 15 -3 0 -10 47 -16 147
-18 66 -1 74 1 110 30 81 65 120 189 110 351 -6 104 -31 188 -99 338 -35 75
-52 127 -56 167 -5 62 13 148 32 148 6 0 4 5 -4 10 -21 14 -12 13 150 -15 80
-13 150 -25 156 -25 7 0 26 -23 44 -50 26 -41 30 -53 20 -65 -7 -8 -10 -15 -6
-15 3 0 1 -12 -4 -26 -13 -32 -23 -106 -22 -159 1 -64 8 -134 15 -141 3 -3 3
-12 0 -20 -3 -8 0 -14 6 -14 6 0 8 -7 5 -15 -4 -8 -1 -15 5 -15 6 0 8 -6 5
-14 -3 -8 0 -17 5 -21 6 -3 9 -11 6 -16 -4 -5 -2 -9 3 -9 9 0 25 -37 23 -52
-1 -5 4 -8 9 -8 6 0 10 -7 10 -15 0 -8 5 -15 10 -15 6 0 10 -4 10 -10 0 -18
112 -140 130 -140 5 0 10 -4 10 -8 0 -9 62 -47 73 -44 4 1 7 -3 7 -8 0 -6 7
-10 15 -10 8 0 15 -5 15 -11 0 -6 7 -9 15 -5 8 3 15 2 15 -3 0 -7 101 -41 140
-46 8 -1 37 -13 65 -25 62 -29 164 -32 212 -7 70 37 108 119 107 232 -2 160
-51 284 -168 430 -84 104 -97 125 -101 171 -3 33 -2 34 33 34 39 0 64 -11 63
-26 -1 -5 6 -17 14 -27 8 -9 15 -20 15 -23 0 -13 127 -144 140 -144 5 0 15 -6
22 -13 11 -10 58 -36 78 -42 3 -1 22 -9 43 -19 21 -9 42 -14 47 -11 6 4 10 2
10 -4 0 -5 8 -10 18 -10 36 1 74 -8 80 -19 4 -5 36 -21 72 -33 53 -19 86 -23
175 -24 129 0 202 18 266 68 63 48 82 79 87 141 5 68 -21 128 -78 180 -42 38
-136 90 -149 82 -4 -3 -14 4 -21 15 -8 10 -20 19 -27 19 -7 0 -13 4 -13 9 0 5
-10 13 -22 17 -12 3 -30 15 -41 25 -11 10 -24 16 -28 13 -4 -2 -10 0 -14 6 -4
6 -11 8 -16 5 -5 -4 -9 -2 -9 4 0 10 -56 26 -77 22 -7 -1 -13 2 -13 6 0 14
-163 21 -226 11 -52 -9 -174 -51 -174 -61 0 -4 -4 -6 -8 -3 -5 3 -18 -4 -30
-14 -12 -11 -26 -20 -31 -20 -6 0 -32 -22 -59 -49 -39 -40 -53 -48 -75 -44
l-26 5 22 23 c12 12 57 48 99 79 103 76 177 160 224 253 34 65 39 87 42 152 4
100 -19 142 -98 184 -47 24 -55 33 -58 59 -2 35 -4 38 -24 42 -7 2 -26 9 -43
15 -16 7 -40 14 -52 14 -13 1 -23 5 -23 9 0 4 -14 6 -30 4 -17 -2 -32 -1 -34
3 -3 5 -121 6 -121 1 0 -1 -19 -5 -75 -14 -42 -6 -84 -18 -105 -30 -11 -5 -22
-11 -25 -12 -3 -1 -15 -5 -27 -9 -13 -4 -23 -11 -23 -16 0 -5 -3 -8 -7 -7 -11
3 -73 -35 -73 -44 0 -4 -5 -8 -11 -8 -7 0 -21 -10 -32 -23 l-19 -22 7 25 c15
46 9 153 -10 190 -32 64 -110 130 -135 115 -6 -3 -10 0 -11 7 -1 7 -2 21 -3
31 -1 17 -86 76 -86 61 0 -4 -7 -1 -15 6 -8 6 -19 9 -25 5 -5 -3 -10 -1 -10 5
0 7 -8 9 -20 5 -11 -3 -20 -2 -20 2 0 5 -23 9 -51 8 -27 -1 -53 3 -56 7 -2 5
-11 4 -18 -2 -9 -8 -15 -8 -20 0 -3 6 -12 7 -18 3 -6 -4 -27 -8 -47 -10 -58
-4 -90 -9 -96 -16 -3 -3 -12 -3 -20 0 -8 3 -14 0 -14 -6 0 -7 -6 -11 -12 -10
-7 1 -26 -3 -41 -9 -45 -19 -44 -22 -38 74 0 11 10 30 21 42 34 36 83 43 207
30 173 -18 253 9 317 107 30 46 35 124 12 180 -23 53 -104 134 -169 167 -33
16 -61 27 -64 24 -3 -2 -17 8 -33 22 -15 15 -54 41 -87 57 -32 17 -61 35 -65
40 -4 6 -8 6 -8 1 0 -5 -6 -4 -12 2 -7 6 -16 11 -20 11 -5 1 -9 1 -10 2 -41
12 -127 25 -161 24 -28 0 -35 2 -25 10 17 13 50 170 54 260 l3 70 52 43 c29
24 74 54 100 67 l48 25 68 -32 c62 -30 76 -33 169 -33 74 0 100 -3 97 -12 -9
-23 75 -55 146 -55 130 0 257 79 296 184 30 81 -4 162 -80 189 -29 11 -33 17
-32 43 2 26 -4 34 -41 54 -187 104 -453 31 -565 -156 -33 -55 -63 -129 -59
-144 1 -4 -26 -22 -60 -39 -34 -17 -79 -42 -100 -55 -21 -13 -39 -24 -42 -24
-2 0 -7 21 -11 47 -22 145 -119 272 -215 279 -19 2 -38 3 -42 3 -5 1 -8 7 -8
14 0 19 -58 86 -124 145 -33 30 -41 32 -65 24 -41 -14 -89 -56 -164 -143 -27
-31 -30 -32 -60 -20 -18 7 -38 13 -44 14 -7 0 -13 4 -13 9 0 4 -7 8 -15 8 -8
0 -15 5 -15 10 0 6 -7 10 -15 10 -8 0 -15 4 -15 9 0 5 -19 18 -42 30 -24 12
-37 21 -30 21 9 0 10 4 1 18 -20 32 -2 66 82 158 125 138 163 236 123 320 -19
40 -83 97 -101 90 -7 -3 -10 1 -7 9 3 8 -6 21 -23 32 -15 9 -30 20 -33 23 -7
7 -53 27 -64 28 -5 0 -12 5 -15 10 -3 5 -29 16 -56 26 l-51 16 7 73 c4 39 12
99 19 132 32 159 -35 293 -142 283 -35 -3 -36 -2 -44 37 -4 22 -8 42 -9 45 -1
3 -5 17 -9 33 -5 15 -12 27 -17 27 -5 0 -8 6 -6 13 2 13 -72 15 -128 4 -60
-13 -158 -72 -217 -131 -111 -112 -166 -285 -135 -421 5 -22 10 -47 12 -55 2
-8 8 -26 13 -40 7 -19 5 -35 -13 -70 -12 -25 -32 -72 -44 -106 -13 -36 -28
-61 -37 -61 -8 0 -14 4 -14 9 0 4 -7 8 -15 8 -8 0 -15 5 -15 10 0 6 -9 10 -20
10 -11 0 -20 5 -20 10 0 6 -7 10 -15 10 -8 0 -15 5 -15 10 0 6 -6 10 -14 10
-7 0 -27 7 -42 15 -16 8 -37 15 -46 15 -10 0 -18 5 -18 11 0 6 -9 8 -20 4 -12
-4 -20 -2 -20 5 0 7 -8 9 -20 5 -11 -3 -20 -2 -20 3 0 6 -18 9 -40 8 -22 -1
-40 1 -40 4 0 10 -172 6 -187 -3 -7 -5 -17 -6 -21 -3 -8 5 -108 -17 -142 -31
-8 -3 -21 -5 -27 -4 -7 1 -13 -3 -13 -10 0 -6 -7 -8 -15 -5 -9 3 -18 -1 -21
-8 -5 -12 -13 -11 -47 5 -23 10 -50 19 -60 19 -10 0 -20 7 -22 15 -3 8 -8 23
-12 33 -3 9 -6 20 -5 24 3 14 -33 26 -68 23 -19 -1 -38 2 -42 8 -4 7 -11 7
-21 -2 -11 -8 -17 -9 -22 -1 -5 8 -10 8 -20 0 -9 -8 -15 -8 -20 0 -3 6 -11 7
-18 3 -6 -4 -22 -7 -35 -8 -23 -1 -24 1 -19 50 7 73 65 299 95 375 14 36 37
85 52 109 23 41 29 45 70 48 41 3 76 8 90 13 3 1 9 2 14 1 5 -1 12 3 16 9 4 7
22 -2 49 -25 52 -43 76 -49 152 -41 176 18 369 214 424 431 31 121 12 254 -46
319 -31 36 -108 72 -132 63 -10 -4 -19 11 -32 54 -10 32 -21 59 -25 59 -4 0
-10 8 -13 19 -5 21 -44 31 -76 19z m-1694 -1379 c-3 -10 -1 -21 4 -24 4 -3 6
-12 3 -19 -3 -8 -1 -17 5 -20 6 -4 8 -13 5 -20 -3 -8 0 -17 5 -21 6 -3 9 -11
5 -16 -3 -5 0 -16 6 -24 6 -8 9 -18 6 -24 -3 -5 1 -11 9 -15 8 -3 12 -12 9
-21 -3 -8 -1 -15 5 -15 6 0 11 -9 11 -19 0 -13 -6 -19 -17 -19 -10 1 -28 -2
-40 -6 -19 -6 -23 -2 -33 34 -10 38 -30 183 -30 223 0 9 7 17 15 17 8 0 15 5
15 11 0 5 5 7 11 3 6 -3 9 -15 6 -25z m2616 -130 c4 -13 -2 -26 -15 -37 -35
-29 -138 -131 -138 -137 0 -3 -12 -18 -27 -34 -23 -23 -32 -27 -51 -20 -13 5
-27 7 -32 4 -11 -7 19 121 40 171 18 40 19 41 77 47 32 3 74 13 93 21 40 16
45 15 53 -15z m150 -593 c42 -21 77 -39 77 -41 0 -1 -14 -1 -30 0 -17 1 -33
-2 -36 -7 -3 -4 -9 -6 -14 -3 -5 3 -11 1 -15 -5 -4 -6 -11 -8 -16 -4 -5 3 -16
0 -24 -6 -8 -7 -15 -9 -15 -5 0 4 -7 1 -17 -6 -9 -8 -19 -13 -22 -13 -3 1 -16
-2 -29 -7 -13 -5 -28 -9 -33 -9 -5 0 -9 -4 -9 -10 0 -5 -7 -10 -15 -10 -8 0
-15 -4 -15 -10 0 -5 -3 -9 -7 -8 -11 3 -73 -35 -73 -44 0 -4 -4 -8 -8 -8 -10
0 1 85 16 123 51 123 137 146 285 73z m-458 -538 c30 -29 56 -48 65 -48 6 0
10 -4 10 -9 0 -5 14 -12 30 -16 17 -4 30 -10 30 -15 0 -4 12 -10 28 -13 15 -3
41 -11 57 -18 17 -7 36 -13 42 -15 7 -1 25 -17 40 -35 16 -18 36 -40 45 -49
16 -14 14 -15 -20 -17 -79 -3 -102 -6 -102 -15 0 -5 -9 -6 -20 -3 -12 4 -20 2
-20 -5 0 -6 -4 -9 -9 -6 -5 4 -22 1 -38 -6 -15 -6 -30 -12 -33 -13 -19 -6 -69
-27 -87 -37 -34 -17 -53 9 -53 76 0 47 -4 60 -31 90 -16 19 -38 38 -48 41 -16
5 -17 12 -10 48 4 23 8 45 9 49 0 8 55 26 83 27 10 1 24 -5 32 -11z m1345
-393 c0 -1 -16 -16 -35 -35 l-35 -34 0 27 c0 17 5 27 15 27 8 0 15 4 15 9 0 6
9 9 20 8 11 -1 20 -2 20 -2z m-100 -53 c0 -43 -4 -52 -41 -87 -30 -29 -40 -35
-36 -20 3 11 9 36 13 55 10 50 35 100 51 100 9 0 13 -15 13 -48z m184 -20 c16
-12 23 -22 17 -22 -7 0 -19 -6 -26 -12 -48 -44 -50 -44 -90 -26 l-26 12 43 43
c23 23 44 39 47 35 4 -4 19 -18 35 -30z m-82 -101 c16 -6 30 -28 47 -72 13
-35 27 -66 30 -69 4 -3 15 -18 25 -35 15 -22 15 -27 4 -17 -9 7 -18 9 -20 5
-3 -4 -3 -3 -2 4 2 9 -4 10 -21 3 -15 -6 -25 -5 -27 1 -2 5 -21 11 -43 13 -22
2 -40 5 -40 6 0 1 -27 3 -60 4 -44 2 -60 6 -61 17 -2 35 -5 40 -16 33 -7 -4
16 23 52 60 68 69 71 71 132 47z m1058 -1271 c-8 -5 -11 -12 -8 -15 4 -4 2
-18 -3 -32 -11 -29 -22 -105 -22 -151 1 -28 -6 -37 -38 -58 -47 -29 -39 -29
-153 -3 l-93 22 38 35 c58 52 283 220 289 215 2 -2 -2 -8 -10 -13z m40 -275
c39 -14 99 -26 140 -28 17 -1 22 -37 5 -37 -5 0 -63 10 -129 22 -117 22 -118
22 -96 40 27 22 27 22 80 3z m90 -111 c52 -9 89 -19 82 -21 -6 -3 -10 -8 -8
-12 5 -7 -54 -8 -69 0 -6 3 -31 4 -56 4 -42 -2 -48 1 -64 28 -17 28 -17 29 1
24 11 -3 62 -14 114 -23z m-7250 -24 c-10 -6 -11 -10 -2 -10 6 0 12 -4 12 -10
0 -5 -7 -7 -15 -4 -8 4 -15 1 -15 -5 0 -6 -7 -8 -15 -5 -8 4 -15 1 -15 -5 0
-6 -7 -8 -15 -5 -8 4 -15 2 -15 -4 0 -6 -13 -13 -30 -17 -16 -4 -30 -11 -30
-16 0 -5 -7 -9 -15 -9 -8 0 -15 -5 -15 -11 0 -5 -5 -7 -10 -4 -6 3 -13 -1 -16
-9 -3 -9 -10 -14 -14 -11 -5 3 -13 -3 -19 -12 -6 -10 -11 -15 -11 -10 0 4 -27
-20 -60 -53 -33 -33 -60 -58 -60 -57 0 2 7 18 16 36 13 27 14 40 5 78 -7 24
-19 55 -27 68 -18 27 -26 25 166 54 74 11 146 22 160 24 50 8 57 8 40 -3z
m3564 -598 c17 -9 74 -26 126 -38 52 -13 88 -23 80 -23 -8 -1 19 -22 60 -47
41 -25 84 -54 96 -65 11 -11 25 -16 30 -12 5 5 6 4 1 -1 -4 -5 -37 -10 -75
-12 -37 -1 -67 -3 -67 -4 0 -1 -9 -3 -20 -5 -43 -8 -165 -49 -165 -56 0 -4
-13 -10 -30 -14 -16 -4 -30 -11 -30 -16 0 -5 -4 -9 -10 -9 -9 0 -35 -19 -65
-47 -19 -18 -35 -16 -124 16 -78 28 -169 77 -287 154 l-62 40 42 42 c42 43
222 141 321 175 l50 17 49 -39 c27 -22 63 -47 80 -56z m877 -277 c1 -5 1 -14
0 -18 -1 -5 3 -6 8 -3 5 3 17 -7 26 -22 18 -26 18 -27 -1 -11 -10 9 -29 20
-41 23 -33 10 -48 33 -33 51 6 8 9 20 5 27 -4 7 3 2 14 -12 11 -14 21 -29 22
-35z"/>
</g>
</svg>
